<?xml version="1.0" encoding="utf-8"?>
<!-- Generator: Adobe Illustrator 25.4.1, SVG Export Plug-In . SVG Version: 6.00 Build 0)  -->
<svg version="1.1" id="Layer_1" xmlns="http://www.w3.org/2000/svg" xmlns:xlink="http://www.w3.org/1999/xlink" x="0px" y="0px"
	 viewBox="0 0 214 66" style="enable-background:new 0 0 214 66;" xml:space="preserve">
<style type="text/css">
	.st0{display:none;fill:#FEFEFE;}
	.st1{fill:#D5EEFA;}
	.st2{fill:#E0F4F9;}
	.st3{fill:#FCFDFC;}
</style>
<g>
	<path class="st0" d="M0.07,65.92C0.07,44.96,0.12,24.01,0,3.06C-0.01,0.56,0.57,0,3.06,0c69.28,0.08,138.57,0.08,207.85,0
		c2.5,0,3.08,0.56,3.06,3.06c-0.12,19.79-0.15,39.58,0.02,59.37c0.03,2.98-0.6,3.58-3.58,3.58C140.3,65.89,70.18,65.92,0.07,65.92z"
		/>
	<path class="st1" d="M202.92,43.96c2.43,0.36,4.19,1.96,5.9,3.46c3.17,2.8,3.01,6.69-0.34,9.38c-2.81,2.26-6.15,3.22-9.75,3.11
		c-8.77-0.28-17.53,0.15-26.34-0.74c-9.87-1-19.86,0.34-29.63,2.06c-13.11,2.31-26.09,3.02-39.33,0.88
		c-13.65-2.21-27.38-1.46-41,0.92c-10.61,1.85-21.07,1.24-31.41-1.93c-4.89-1.49-9.77-3.1-14.99-3.24
		c-4.59-0.12-8.48-2.7-12.42-4.56c-2.76-1.3-2.08-4.56-0.36-6.94c3.05-4.22,8.01-4.87,12.48-6.34c1.71-0.56,3.54-0.72,5.32-1.06
		c1.36-0.56,3.17-1.17,3.81,0.35c0.6,1.42-1.46,1.82-2.39,2.63c-2.48,1.72-5.21,2.83-9.32,2.94c2.9,1.88,5.09,2.35,7.35,2.61
		c0.5,0.06,1.01,0,1.49,0.08c7.56,1.28,14.75,1.14,22.35-1.36c5.94-1.95,12.88-1.39,19.25,0.19c9.69,2.4,18.86,1.81,27.04-4.37
		c10.05-7.6,21.33-10.32,33.75-9.44c5.31,0.37,10.13,1.64,14.2,5.23c3.46,3.05,7.35,4.1,12.01,3.21c5.68-1.08,11.46-0.57,16.48,2.35
		c5.86,3.41,11.95,4.59,18.62,4.26c4.8-0.23,9.64-0.29,14.54,0.35c1.03-1.25-0.74-2.86,0.47-4.05
		C201.44,43.39,202.18,43.4,202.92,43.96z"/>
	<path class="st2" d="M202.92,43.96c-0.68,0-1.36,0.01-2.05,0.01c-2.44,1.44-4.96,0.52-7.22-0.22c-5.34-1.73-10.15-4.73-15.55-6.53
		c-3.68-1.23-5.6-5.59-7.12-9.26c-1.68-4.06-3.75-7.27-8.28-8.51c-1.89-0.52-3.48-1.93-5.11-3.08c-4.68-3.33-9.46-4.91-15.43-3.24
		c-3.66,1.03-7.39-1.16-10.87-2.69c-4.55-2.01-8.98-3.99-14.2-4.19c-6.95-0.27-12.35,3.57-18.31,5.86
		c-4.28,1.65-8.04,4.2-11.17,7.99c-3.13,3.8-7.4,6.72-12.98,6.28c-2.4-0.19-4.83,0.51-6.5,2.14c-5.36,5.23-11.89,7.7-19.11,8.74
		c-6.3,0.91-12.13,3.33-17.98,5.63c-3.54,1.39-6.47,0.9-9-1.93c0.7-0.53,1.4-1.05,2.45-1.85c-1.41-0.06-2.43-0.11-3.46-0.15
		c2.89-1.88,6.41-1.65,9.5-2.05c8.88-1.14,16.77-5.72,25.58-6.7c2.68-0.3,4.56-1.38,6.46-3.15c4.77-4.45,10.69-6.46,17.08-6.98
		c2.22-0.18,3.42-1.02,4.83-2.73C94.18,5.56,106.86,2.17,121.74,3.6c6.01,0.58,11.24,1.9,16.06,5.34c1.41,1,2.95,0.81,4.71,0.5
		c15.96-2.76,28.02,6.4,34.02,19.82c1.82,4.05,3.96,6.08,7.6,6.49C191.33,36.57,197.14,40.14,202.92,43.96z"/>
	<path class="st3" d="M22.05,40.97c5.65,2.75,10.53,0.42,15.46-2.17c4.42-2.32,9.52-2.4,14.26-3.58c5.03-1.24,9.62-2.3,13.27-6.36
		c1.57-1.75,4.3-3.7,6.36-3.56c8.67,0.61,13.9-3.87,18.92-10.13c2.16-2.7,6.23-4.41,9.76-5.36c5.59-1.51,10.26-5.54,16.71-4.97
		c4.56,0.4,8.72,1.32,12.73,3.24c4.91,2.35,9.65,4.62,15.49,3.06c4.13-1.1,8.03,0.43,11.59,2.92c3.22,2.25,6.34,4.66,10.4,5.59
		c3.35,0.77,3.64,4.41,4.81,7.01c0.53,1.19,1.26,2.32,1.68,3.47c2.85,7.8,11.37,6.65,16.59,10.67c3.12,2.4,7.2,2.07,10.8,3.15
		c0.12,1.12-0.1,2.37,1.36,2.9c1.01,0.37,2.62,0.5,1.74,2.2c-0.5,0.96-1.73,1.01-2.7,0.75c-6.71-1.81-13.56-0.76-20.32-0.78
		c-4.63-0.01-8.61-1.21-12.52-3.53c-5.75-3.42-12.05-4.54-18.58-2.95c-4.9,1.2-8.86-0.46-12.18-3.62c-2.12-2.02-4.4-3.48-7.13-3.98
		c-13.26-2.43-25.91-1.43-37.14,7.04c-9.31,7.03-19.31,8.33-30.81,5.63c-8.4-1.97-17.48-1.88-25.75,2.17c-1.4,0.69-2.88,1.64-4.19,1
		c-6.13-3.02-13.29-0.46-19.34-3.77c-0.9-0.49-2.79,0.34-2.75-1.29c0.05-1.73,2.23-2.71,3.28-2.43
		C17.22,44.19,19.32,41.64,22.05,40.97z"/>
</g>
</svg>
