<?xml version="1.0" encoding="utf-8"?>
<!-- Generator: Adobe Illustrator 25.4.1, SVG Export Plug-In . SVG Version: 6.00 Build 0)  -->
<svg version="1.1" id="Layer_1" xmlns="http://www.w3.org/2000/svg" xmlns:xlink="http://www.w3.org/1999/xlink" x="0px" y="0px"
	 viewBox="0 0 144 50" style="enable-background:new 0 0 144 50;" xml:space="preserve">
<style type="text/css">
	.st0{display:none;fill:#FEFEFE;}
	.st1{fill:#E2F4FA;}
	.st2{fill:#D3EFFC;}
	.st3{fill:#FBFDFC;}
</style>
<g>
	<path class="st0" d="M143.92,29.99c0,5.65-0.15,11.31,0.07,16.95c0.1,2.51-0.57,3.07-3.07,3.06c-21.98-0.11-43.96-0.07-65.93-0.07
		c-23.98,0-47.95-0.04-71.93,0.07c-2.5,0.01-3.09-0.56-3.06-3.06C0.14,32.31,0.14,17.68,0,3.06C-0.02,0.56,0.57,0,3.06,0
		c45.95,0.09,91.91,0.09,137.86,0c2.5,0,3.12,0.56,3.07,3.06c-0.18,8.31-0.07,16.62-0.07,24.93c-0.49,0.14-1.17,0.28-1.4-0.11
		c-4.5-7.47-12.44-8.64-19.8-9.82c-9.55-1.54-18.13-5.05-26.41-9.68c-7.84-4.39-16.15-4.18-24.12-1.3
		c-8.34,3.01-16.78,5.21-25.49,6.58c-4.1,0.64-7.4,2.94-10.61,5.31c-5.21,3.86-10.83,6.29-17.44,6.57
		c-4.25,0.18-7.88,2.5-11.49,4.56c-2.31,1.32-3.85,3.22-3.53,6.08c0.36,3.2,2.54,4.44,5.45,4.82c11.38,3.53,23.06,2.83,34.65,2.05
		c7.16-0.48,14.27-0.99,21.36,0.26c12.35,2.17,24.43,1.13,36.54-1.98c6.89-1.77,14.19-1.63,21.12-3.49
		c2.95-0.41,5.88-0.92,8.81-1.48c3.45-0.67,6.72-1.76,9.06-4.69C141.43,30.64,142.31,29.5,143.92,29.99z"/>
	<path class="st1" d="M143.92,29.99c-4.7,7.35-12.47,7.88-19.98,8.98c-1.19-1.13-2.51-2.14-3.62-3.36
		c-3.24-3.56-7.1-3.65-11.27-1.95c-2.42,0.98-4.99,2.48-6.37-1.39c5.73-5.96,12.89-5.41,19.85-3.69c5.17,1.27,9.79,1.12,14.2-1.32
		c-9.92-6.29-21.32-8.1-32.58-10.36c-1.95-0.39-4.16-0.69-5.31-2.45c-4.83-7.41-12.23-6.6-19.24-5.59
		c-3.92,0.56-8.21,1.43-11.32,4.65c-0.91,0.95-2.34,1.55-3.66,1.35c-7.39-1.13-13.87,2.8-20.9,3.59c-0.66,0.07-0.03-0.29-0.46,0.11
		c-8.54,7.93-20.97,6.75-30.32,12.88c-2.18,1.43-2.7,2.58-1.58,4.71c-0.14,2.47-4.14,2.76-3.3,5.79c-3.4,0.11-5.29-1.79-5.94-4.86
		C1.46,33.89,2.36,31,5.39,29.43c4.97-2.58,9.73-5.63,15.77-5.53c4.2,0.07,8.27-1.38,11.41-4.25c6.85-6.28,15.51-8,24.1-9.35
		c4.2-0.66,7.95-2.05,11.81-3.47c3.88-1.43,7.73-2.58,11.99-2.91c9.31-0.73,17.16,2.57,24.51,7.59c4.58,3.13,9.93,3.3,15.01,4.5
		c4,0.95,8.02,1.78,12.02,2.72c5.38,1.26,9.32,4.41,11.91,9.26C143.92,28.66,143.92,29.32,143.92,29.99z"/>
	<path class="st2" d="M102.96,32.98c1.7,1.12,3.29,0.92,5.09-0.02c6.89-3.6,12.55-1.41,15.89,6.01c-6.25,1.66-12.57,2.81-19.05,3.01
		c-3.49,0.11-6.72,1.6-10.07,2.36c-10.93,2.48-21.64,1.65-32.53,0.01c-5.2-0.79-10.67-0.77-15.91-0.15
		c-11.12,1.32-22.15,1.12-33.19-0.41c-1.76-0.25-3.43-1.21-5.13-1.84c-2.33-3.66,0.48-4.24,3-4.99c9.99-1.81,19.48-7,29.98-5.22
		c6.84,1.16,12.93-0.78,18.82-3.39c6.22-2.75,12.69-3.79,19.3-4.6c5.12-0.63,9.38,2.13,13.71,3.94
		C96.31,29.12,99.72,30.98,102.96,32.98z"/>
	<path class="st3" d="M102.96,32.98c-2.57,0.28-4.78-0.41-6.96-1.91c-11.25-7.74-22.91-6.88-34.89-1.7
		c-4.64,2.01-9.63,4.7-14.37,4.53c-4.09-0.14-8.4-0.71-12.62-0.89c-2.63-0.11-5.05,0.22-7.62,1.46c-4.78,2.3-10.05,3.14-15.43,2.5
		c-2.07-2.55-5.29-3.65,0.9-6.78c6.9-3.5,14.2-4.48,21.14-7.09c1.28-0.48,2.61-0.91,3.43-1.86c4.42-5.09,10.95-4.36,16.53-6.27
		c3.92-1.34,7.65-2.64,11.84-1.18c0.69,0.24,1.99-0.49,2.66-1.13c6.43-6.16,14.54-6.09,22.41-5.36c3.34,0.31,8.03,0.69,9.16,5.68
		c0.34,1.51,1.63,1.89,3.04,2.1c6.77,1.01,13.28,3.22,20.11,4.07c2.62,0.33,5.39,1.44,7.54,2.97c2.54,1.8,4.88,3.3,8.12,2.93
		c0.9-0.1,2.22-0.3,2.46,1.01c0.21,1.16-0.88,1.66-1.78,2.06c-5.36,2.39-10.47,3.77-16.68,1.68
		C115.52,27.63,108.65,28.17,102.96,32.98z"/>
</g>
</svg>
