<?xml version="1.0" encoding="utf-8"?>
<!-- Generator: Adobe Illustrator 25.4.1, SVG Export Plug-In . SVG Version: 6.00 Build 0)  -->
<svg version="1.1" id="Layer_1" xmlns="http://www.w3.org/2000/svg" xmlns:xlink="http://www.w3.org/1999/xlink" x="0px" y="0px"
	 viewBox="0 0 578.81 130.14" style="enable-background:new 0 0 578.81 130.14;" xml:space="preserve">
<style type="text/css">
	.st0{display:none;fill:#FEFEFE;}
	.st1{fill:#DFF2F8;}
	.st2{fill:#D6EDFB;}
	.st3{fill:#FEFEFE;}
</style>
<g>
	<path class="st0" d="M578.74,94.36c0,11.07-0.07,22.15,0.06,33.22c0.03,2.14-0.43,2.56-2.58,2.56
		c-43.8-0.08-87.59-0.06-131.39-0.06c-147.18,0-294.36-0.01-441.54,0.07c-2.69,0-3.31-0.6-3.3-3.28C0.1,85.55,0.1,44.24,0,2.92
		C-0.01,0.48,0.48,0,2.94,0c190.98,0.07,381.95,0.07,572.93,0c2.46,0,2.95,0.48,2.94,2.92c-0.11,29.29-0.07,58.58-0.07,87.86
		c-0.88,0.66-1.53,0.14-2.22-0.39c-8.19-6.23-17.83-8.28-27.75-9.29c-4.03-0.41-8.13-0.11-12.19-0.06
		c-2.88,0.04-5.32-0.92-7.68-2.51c-8.4-5.68-17.35-9.51-27.86-7.73c-1.21,0.2-2.41,0-3.44-0.72c-4.76-3.32-10.06-4.76-15.84-4.67
		c-1.76,0.03-3.26-0.81-4.53-1.93c-4.78-4.22-10.51-6.43-16.62-7.84c-4.76-1.1-9.2,0.58-13.7,1.7c-0.92,0.23-1.91,0.43-2.72,0.87
		c-5.34,2.88-10.46,1.19-15.46-0.82c-9.63-3.87-19.41-4.63-29.49-2.14c-2.81,0.7-5.29,2.17-8.07,2.93
		c-2.04,0.56-3.67,0.27-5.23-1.25c-10.06-9.85-22.24-12.74-35.9-10.7c-1.18,0.18-2.35,0.43-3.55,0.46c-2.09,0.05-3.34-0.67-4.4-2.77
		c-3.32-6.56-6.89-12.99-11.99-18.48c-5.55-5.97-12.09-10.58-19.62-13.41c-13.14-4.93-26.79-8.39-40.91-8
		c-14.36,0.39-28.65,2.44-41.83,8.55c-13.69,6.34-25.79,14.89-33.89,28.05c-1.09,1.78-2.44,2.77-4.56,2.93
		c-3.69,0.28-7.35,0.69-10.95,1.71c-7.1,2.01-13.18,5.63-17.88,11.26c-2.58,3.1-5.56,3.95-9.2,2.78
		c-15.93-5.15-32.38-5.76-48.89-5.35c-11.6,0.28-22.67,3.08-32.72,9.09c-2.78,1.66-5.26,3.77-6.86,6.65c-1.12,2.02-2.75,2.75-5,2.76
		c-6.77,0.03-12.52,2.66-17.45,7.14c-1.79,1.62-3.67,2.41-6.15,2.25c-6.95-0.44-13.83-0.02-20.52,2.13
		c-2.51,0.81-5.05,1.49-7.11,3.26c-4.87,3.63-4.23,9.35,1.66,12.82c5.07,2.99,10.66,4.65,16.36,6.18
		c9.01,2.43,18.54,2.44,27.27,5.93c5.27,2.1,10.73,3.42,16.29,4.13c15.96,2.05,31.95,1.78,47.94,0.26
		c7.01-0.67,13.96-2.11,21.06-1.83c2.04,0.08,4.15,0.01,6.01,0.84c4.79,2.14,10.04,2,15.03,3.16c3.46,0.8,7.12,0.47,10.67-0.35
		c5.45-1.25,10.68-1.11,16.14,0.94c14.31,5.39,29.13,5.3,43.79,1.89c7.23-1.68,13.86-2,20.94,0.62c6.47,2.4,13.4,3.49,20.33,4.17
		c6.75,0.66,13.37-0.22,19.92-1.77c1.66-0.39,3.26-0.66,4.94-0.2c9.08,2.51,18.38,2.95,27.72,2.84c11.47-0.13,22.63-1.87,32.99-7.1
		c5.99-3.02,12.42-2.45,18.67-2.05c8.02,0.52,15.96,0.42,23.97,0.04c6.02-0.28,11.9-1,17.69-2.43c11.49-2.83,22.87-6.02,33.57-11.2
		c3.5-1.7,7.15-1.83,10.87-1.3c17.99,2.58,35.79,1.4,53.32-3.13c5.46-1.41,10.88-1.7,16.34-1.25c6.31,0.52,12.63,1.58,18.91,1.62
		c9.03,0.06,18.19-0.14,26.56-4.45C576.52,95.03,577.33,93.95,578.74,94.36z"/>
	<path class="st1" d="M6.52,86.47c0.61-1.08,1.47-1.7,2.69-2.14c8.52-3.03,17.28-4.21,26.28-3.34c1.38,0.13,2.34-0.31,3.19-1.17
		c5.52-5.59,12.14-8.53,20.08-8.32c1.16,0.03,2.06-0.22,2.65-1.37c3.68-7.17,10.74-10,17.54-12.69c13.59-5.36,28-5.26,42.23-4.3
		c7.28,0.49,14.71,0.85,21.87,2.68c3.67,0.94,7.17,2.39,10.98,2.99c2.05,0.32,3.03-0.37,4.29-1.53c3.64-3.35,6.75-7.13,11.4-9.54
		c4.64-2.4,9.44-4.26,14.42-4.62c5.07-0.37,9.19-1.35,11.12-6.33c1.11-2.85,3.37-4.52,5.38-6.47c6.13-5.96,12.45-11.63,20.4-15.29
		c5.34-2.46,10.32-5.59,16.18-6.99c7.97-1.91,15.96-3.41,24.09-4.51c15.82-2.15,30.75,1.74,45.56,6.11
		c9.23,2.72,17.13,7.93,23.78,15.09c5.4,5.82,9.22,12.52,12.55,19.57c0.51,1.07,1.01,1.42,2.06,1.48c1.7,0.09,3.3-0.26,4.93-0.67
		c6.69-1.69,13.26-0.1,19.73,1.18c6.41,1.26,11.76,5.03,16.27,9.61c1.81,1.83,3.21,2.09,5.23,1.18c6.84-3.07,13.97-4.34,21.5-4.27
		c5.65,0.05,10.9,1.58,15.87,3.67c5.93,2.49,11.41,2.75,17.27,0.19c8.5-3.71,16.87-2.74,24.9,1.53c2.48,1.32,5.05,2.55,7.06,4.72
		c1.06,1.14,2.61,1.68,4.51,1.62c5.33-0.17,10.39,1.1,14.78,4.25c1.14,0.82,2.17,1.52,3.56,1.2c8.83-2.05,16.58,1.07,24.18,4.93
		c1.79,0.91,3.45,1.97,5.01,3.29c1.74,1.47,3.96,1.99,6.37,1.88c9.2-0.41,18.36-0.16,27.2,2.85c5.43,1.85,10.84,3.75,15.1,7.83
		c0,1.19,0,2.38,0,3.57c-0.72,0.48-1.43,0.96-2.15,1.44c-1.78-3.69-5.05-3.13-7.93-2.28c-5.63,1.67-11.33,1.01-17.02,1.07
		c-1.82,0.02-3.94,0.13-4.64-2.3c1.83-1.67,4.09-1.04,6.17-1.02c5.7,0.03,11.38,0.14,16.73-2.1c0.04-0.38-0.02-0.72-0.23-0.75
		c-4.22-0.73-7.9-3.04-12.08-4.01c-7.58-1.76-15.22-1.01-22.83-1.16c-2.51-0.05-4.44-0.91-6.51-2.38c-6.37-4.49-13.3-7.89-21.19-8.9
		c-0.95-0.12-1.99-0.32-2.84,0.08c-3.6,1.68-6.62,0.5-9.75-1.43c-3.6-2.22-7.51-3.6-11.91-3.15c-3.32,0.34-5.75-1.34-8.35-3.32
		c-6.53-4.97-13.8-8.14-22.26-5.54c-4.01,1.23-8.1,2.21-12.18,2.82c-4.74,0.7-9.69-0.37-13.9-2.44c-9.47-4.66-18.78-3.13-28.23-0.54
		c-1.84,0.51-3.53,1.45-5.39,1.94c-2.59,0.69-4.74,0.24-7.03-1.4c-2.9-2.08-5.86-4.07-8.45-6.54c-2.05-1.96-4.78-2.09-7.3-2.67
		c-4.4-1.01-8.68-2.51-13.33-2.34c-3.3,0.13-6.34,1.22-9.41,2.05c-2.83,0.76-4.69-0.03-5.39-2.5c-1.87-6.63-6.53-11.56-10.11-17.13
		c-2.87-4.46-7.14-7.5-11.97-9.71c-0.43-0.2-0.96-0.26-1.29-0.6c-5.92-6.14-14.01-7.12-21.66-9.44c-13.04-3.95-26.35-2.88-39.5-2.37
		c-10.42,0.4-20.94,2.63-30.25,7.68c-7.3,3.96-14.68,7.97-20.48,14.36c-2.51,2.76-5.75,4.82-7.52,8.34
		c-0.58,1.15-1.29,2.2-1.67,3.48c-0.96,3.26-2.87,4.55-6.35,4.6c-11.58,0.19-21.8,3.63-29.56,12.61c-2.98,3.45-6.73,3.67-10.47,2.42
		c-7.32-2.45-15.03-2.36-22.44-3.9c-7.02-1.46-14.01-0.96-21.02-1.3c-10.09-0.49-19.6,2.44-29.2,4.7c-3.19,0.75-5.7,3.41-8.28,5.48
		c-2.22,1.78-4.45,3.59-6.48,5.63c-1.47,1.48-3.33,2.29-5.43,2.52c-3.39,0.37-6.3,2.04-9.4,3.25c-3.63,1.41-6.61,3.54-9.63,5.79
		c-1.97,1.47-4.17,1.09-6.52,0.62c-6.35-1.27-12.58-1.24-17.89,3.29c-0.93,0.8-1.97,1.29-3.18,1.55c-0.84,0.18-2.22,0.03-2.04,1.39
		c0.13,0.97,1.29,0.89,2.09,0.93c4.77,0.25,9.51,1.04,14.31,0.78c1.78-0.1,3.63-0.24,5.36,0.27c1.49,0.44,3.49,0.64,2.95,3.1
		c-6.13,1.42-12.29,1.04-18.42,0.18c-2.36-0.33-4.67-0.94-7.08-0.77c-2.06,0.14-3.87-0.3-4.75-2.36c-0.87-2.05,0.56-3.33,1.82-4.62
		C5.7,87.33,6.12,86.91,6.52,86.47z"/>
	<path class="st2" d="M6.52,86.47C6.6,88,5.2,88.64,4.55,89.74c-1.11,1.9-0.17,4.19,1.92,4.18c9.14-0.04,18.18,2.05,27.35,1.14
		c2.42-1.67,5.08-1.26,7.57-0.49c8.64,2.67,17.28,2.83,26.21,1.37c5.25-0.86,10.5-2.44,15.95-1.94c0.59,0.05,1.25,0.08,1.78-0.17
		c6.76-3.09,14.04-2.11,21.11-2.62c3.24-0.23,6.2-1.65,9.52-1.52c8.4,0.32,16.67,1.45,24.76,3.66c5.19,1.42,10.52,2.18,15.72,3.58
		c3.27,0.88,6.33-0.91,9.44-1.61c8.33-1.88,16.76-2.41,25.22-1.59c3.84,0.37,7.38,0.22,10.66-1.92c3.98-2.6,8.35-4.61,12.05-7.65
		c0.56-0.46,1.14-0.92,1.85-1.07c10.19-2.2,19.61-6.71,29.93-8.9c15.31-3.25,30.61-3.68,45.89-2.71c11.67,0.73,23.55,2.4,34.34,7.67
		c3.37,1.64,6.78,3.42,9.61,5.99c1.97,1.79,4.31,2.99,6.55,4.34c1.67,1,3.47,0.9,5.17,0.1c2.35-1.1,4.82-1.41,7.35-1.24
		c4.58,0.3,8.84-1.79,13.48-1.53c6.25,0.36,12.32,1.41,18.22,3.34c6.11,2,12.1,2.87,18.64,2.09c6.42-0.77,12.91-0.54,19.5,1.12
		c6.06,1.52,12.53,1.43,18.92-1.18c7.47-3.06,15.55-3.31,23.59-1.66c8.86,1.83,17.62,4.45,26.86,3.55c1.81-0.18,3.5-0.43,5.17-1.21
		c6.37-2.95,13.25-4.38,20.14-4.38c8.91,0,17.86,0.81,26.6,2.91c0.59,0.14,1.13,0.37,1.54,0.85c0.71,0.88,1.7,1.44,2.77,1.37
		c5.96-0.41,12.02,1.17,17.91-1.14c2.34-0.91,5.22,0.49,7.66-1.82c0.43,2.02,0.77,3.59,1.11,5.17c-3.05,3.7-7.66,3.4-11.71,4.19
		c-11.46,2.25-22.92,0.83-34.37-0.55c-7.32-0.88-14.45,0.55-21.52,2.43c-7.37,1.96-14.94,2.92-22.53,3.11
		c-9.04,0.22-18.12,0.63-27.11-1.25c-5.58-1.17-10.45,1.57-15.27,3.79c-10.32,4.74-21.28,7.31-32.3,9.71
		c-9.96,2.17-20.09,2.21-30.21,2.11c-3.92-0.04-7.83-0.55-11.75-0.8c-6.56-0.42-12.29,1.59-18.18,4.04
		c-6.46,2.69-13.25,4.16-20.38,4.83c-8.99,0.85-17.85,0.14-26.76-0.21c-0.59-0.02-1.24-0.01-1.76-0.23
		c-7.16-3.01-14.25-1.37-21.49-0.14c-7.46,1.26-14.97,0.21-22.31-1.55c-5.99-1.43-12-2.73-17.79-4.99
		c-3.32-1.3-6.74,0.93-10.06,1.69c-13.69,3.12-27.36,3.29-41.05,0.26c-2.19-0.49-4.41-1.18-6.4-2.19c-4.93-2.51-9.89-1.6-14.91-0.59
		c-4.48,0.9-8.84,0.65-13.39-0.22c-10.76-2.07-21.38-4.89-32.69-2.51c-8.81,1.85-17.95,1.98-27.03,2
		c-12.43,0.03-24.82-0.13-36.93-3.08c-5.61-1.36-10.78-4.45-16.61-5.01c-6.18-0.59-12.16-2.13-18.15-3.52
		c-7.15-1.66-14.38-3.5-19.73-9.07C0.35,94.06,1.49,88.83,6.52,86.47z"/>
	<path class="st3" d="M547.15,92.22c-5.34-0.74-10.69-2.11-16.03-2.07c-6.31,0.05-12.51-1.87-19.04,0.22
		c-4.86,1.56-9.9,3.03-14.79,4.18c-5.84,1.37-12.46,1.66-18.65-0.55c-2.1-0.75-4.44-0.78-6.61-1.36c-6.24-1.67-12.62-2.58-18.97-1.7
		c-3.83,0.54-8,0.65-11.38,3.1c-0.79,0.57-1.58,1.1-2.6,1.01c-6.21-0.55-12.38,0.67-18.72-1.57c-4.58-1.62-10.34-1.34-15.25-0.32
		c-7.96,1.65-14.86-1.13-22.21-2.86c-7.54-1.77-15.25-4.34-23.18-1.14c-1.35,0.54-3.07,0.16-4.63,0.19
		c-2.72,0.04-5.4-0.21-7.94,1.38c-2.08,1.3-4.37,1.03-6.33-0.61c-2.38-2-5.04-3.93-7.51-5.46c-4.14-2.57-8.45-5.27-13.36-6.77
		c-7.69-2.36-15.59-3.11-23.41-4.52c-11.19-2.02-22.31-1.16-33.37-0.8c-5.11,0.16-10.81,0.19-15.87,2.62
		c-1.85,0.89-4.14,0.96-6.25,1.2c-4.68,0.53-8.99,2.44-13.54,3.42c-0.79,0.17-1.48,0.53-2.14,1.17c-0.99,0.97-2.28,2.35-3.41,2.33
		c-8.83-0.17-13.93,7.11-21.07,10.28c-3.07,1.36-5.99,1.92-8.94,1.29c-7.54-1.61-14.96,0.78-22.44,0.27c-1.37-0.09-2.58,1-3.86,1.48
		c-9.26,3.47-17.51-0.94-26.15-2.73c-8.57-1.77-17.31-4.13-26.04-2.9c-7.65,1.08-15.65,0.33-22.8,2.38
		c-5.4,1.55-10.79,1.37-16.09,2.55c-10.43,2.32-21.26,3.55-31.73,0.26c-3.11-0.98-6-0.85-9-1.13c-1.15-1.89-2.99-2.22-4.98-2.13
		c-6.33,0.28-12.63-0.38-18.94-0.7c-1.39-0.07-2.61-0.03-2.68-1.97c-0.08-2.02,1.01-2.63,2.66-2.29c2.35,0.48,3.38-1.38,4.87-2.4
		c5.54-3.76,11.61-4.13,17.78-2.37c3.1,0.88,7.06-0.25,9.1-3.59c0.35-0.57,0.27-1.56,1.17-1.56c5.9-0.01,10.09-5.58,16.26-4.91
		c1.03,0.11,2.44-0.99,3.28-1.9c3.64-3.94,8.14-6.83,12.23-10.21c2.67-2.21,6.2-2.03,9.31-2.96c12.06-3.62,24.57-3.65,36.93-2.76
		c4.96,0.36,10.25,0.3,15.1,2.38c1.22,0.53,2.84,0.31,4.26,0.21c3.65-0.26,6.82,1.37,10.18,2.32c3.52,1,7.5,1.48,9.99-2.15
		c2.33-3.39,5.64-6.1,9.08-7.88c2.98-1.54,6.41-2.79,9.8-3.67c4.1-1.06,8.21-1.8,12.56-1.32c2.18,0.24,3.82-1.45,4.31-3.96
		c0.73-3.76,2.98-6.79,5.69-9.33c1.86-1.74,3.92-3.18,5.72-5.11c2.97-3.17,6.64-5.94,10.48-8.02c6.41-3.46,13.06-6.56,19.88-9.11
		c2.48-0.93,5.46-1.19,8.22-1.68c12.47-2.22,25.08-1.56,37.66-1.44c3.8,0.04,7.46,1.4,11.16,2.33c2.7,0.68,5.46,1.35,8.2,1.78
		c2.52,0.39,4.83,1.23,6.9,2.48c1.76,1.06,3.27,2.31,5.5,1.95c0.42-0.07,1.19,0.07,1.31,0.33c2.6,5.73,9.6,6.22,13.15,10.92
		c0.83,1.1,1.66,2.23,2.37,3.41c3.35,5.57,8.24,10.22,9.9,16.82c0.54,2.14,1.54,2.68,4.39,1.81c5.7-1.74,11.58-3.16,17.9-0.84
		c2.5,0.92,5.52,2.05,8.54,1.82c1.73-0.13,3.1,0.99,4.03,2.04c2.84,3.19,6.87,4.78,9.87,7.75c2.07,2.05,4.76,0.61,6.74-0.23
		c6-2.56,12.15-3.63,18.64-3.97c5.45-0.28,9.98,2.11,14.93,3.38c4.63,1.19,9.14,3.15,14.69,1.68c5.2-1.37,10.46-4.44,15.98-3.37
		c6.26,1.21,13.04,1.72,17.61,7.38c1.21,1.5,3.02,2.77,5.31,2.47c6.37-0.85,11.86,1.36,16.94,4.89c1.09,0.75,2.4,1.27,3.34,0.63
		c3.7-2.52,7.73-1.33,11.02-0.14c6.26,2.27,13,4.04,17.79,9.24c1.03,1.12,2.3,1.09,3.63,1.09c4.79-0.01,9.57-0.1,14.36,0.02
		c5.74,0.14,11.5,0.34,16.49,3.8c1.8,1.25,4.36-0.49,6.05,1.48c0.55,0.64,2.02,0.55,1.61,1.94c-0.33,1.11-1.33,1.09-2.27,1.35
		C562.34,92.8,554.72,92.09,547.15,92.22z"/>
</g>
</svg>
