<?xml version="1.0" encoding="utf-8"?>
<!-- Generator: Adobe Illustrator 25.4.1, SVG Export Plug-In . SVG Version: 6.00 Build 0)  -->
<svg version="1.1" id="Layer_1" xmlns="http://www.w3.org/2000/svg" xmlns:xlink="http://www.w3.org/1999/xlink" x="0px" y="0px"
	 viewBox="0 0 274 78" style="enable-background:new 0 0 274 78;" xml:space="preserve">
<style type="text/css">
	.st0{display:none;fill:#FEFEFE;}
	.st1{fill:#D5EEFA;}
	.st2{fill:#E4F5F9;}
	.st3{fill:#FDFDFD;}
</style>
<g>
	<path class="st0" d="M137.13,77.91c-44.44,0-88.89-0.04-133.33,0.08C0.63,78-0.02,77.21,0,74.15c0.14-23.6,0.13-47.2,0-70.79
		C-0.01,0.66,0.45,0,3.29,0c89.22,0.1,178.44,0.09,267.66,0.01c2.55,0,3.05,0.64,3.04,3.08c-0.1,23.76-0.12,47.53,0.02,71.29
		c0.02,2.88-0.46,3.62-3.54,3.61C226.02,77.87,181.57,77.91,137.13,77.91z"/>
	<path class="st1" d="M267.94,66.94c-5.26,4.41-11.65,6.53-18.18,6.81c-12.45,0.55-24.98,0.74-37.41-0.05
		c-11.36-0.72-22.65-3.24-34.07-2.67c-13.15,0.66-26.26,2.08-39.22,4.62c-5.94,1.16-11.89-0.29-17.81-0.91
		c-14.65-1.54-29.31-3.38-44.05-2.69c-8.9,0.42-17.78,2.26-26.71,1.76c-13.85-0.77-27.74-1.63-40.54-7.99
		c-3.29-1.63-6.49-3.57-6.59-7.39c-0.1-3.69,1.43-7.04,5.58-8.49c1.84-0.64,3.43-1.97,5.14-2.99c1.93-0.06,1.46,1.2,1.3,2.31
		c-0.24,0.43-0.57,0.82-0.81,1.25c-0.92,1.64-4.21,2.38-3.1,4.45c1.16,2.17,4.22,1.77,6.44,1.41c8.28-1.35,16.6-0.65,24.89-0.84
		c3.5-0.08,6.96,0.08,10.32,1.33c2.61,0.97,5.25,0.68,7.77-0.48c13-6.01,26.74-7.61,40.86-6.81c4.67,0.26,8.77-0.85,12.65-3.55
		c5.65-3.93,11.68-7.03,18.93-6.6c1.66,0.1,3.23-0.69,4.82-1.19c3.84-1.21,7.77-1.72,11.8-1.64c7.7,0.15,15.41,1.76,22.37,4.23
		c6.45,2.29,12.94,6.07,18.33,10.84c3.35,2.96,7.01,4.32,11.39,3.87c12.37-1.26,24.1,0.92,35.24,6.4c4.5,1.53,8.96,0.25,13.09-1.02
		c4.42-1.36,8.76-1.46,13.18-1.23C268.41,59.94,269.55,62.02,267.94,66.94z"/>
	<path class="st2" d="M267.94,66.94c0.74-4.86-1.55-5.96-6.16-6.17c-5.91-0.27-11.21,1.98-16.84,2.69c-2.73,0.34-5.44,1.32-8-0.52
		c8.32-3.29,16.73-6.15,25.9-4.87c-5.15-7.34-11.66-12.29-21.23-11.9c-1.71,0.07-3.21-0.78-4.52-1.88
		c-1.31-1.11-2.79-2.02-4.51-1.85c-4.94,0.47-8.24-2.56-12.12-4.86c-7.07-4.19-14.47-7.19-23.34-5.92
		c-8.75,1.25-17.25,0.55-23.62-7.67c-4.13-5.33-10.38-8.82-16.07-12.46c-3.64-2.33-8.66-2.15-13.01-2.74
		c-7.87-1.08-16.67-2.14-23.44,2.17c-7.67,4.89-17.72,7.24-21.71,17.12c-1.35,3.34-3.85,5.07-8.01,3.05
		c-4.25-2.06-8.7-0.27-12.5,1.59c-6.46,3.18-13.33,5.48-19.18,10.15c-3.69,2.94-8.6,4.61-14.05,3.85
		c-7.43-1.04-14.91-0.93-22.03,2.31c-2.71,1.24-5.66,2.19-8.46-0.05c-0.02-0.83-0.2-1.57-1-2c5.28-2.97,11.19-4.75,17-4.78
		c11.76-0.07,23.27,0.62,32.92-8.2c6.4-5.85,15.1-7.1,23.19-7.48c6.27-0.29,8.94-3.8,12.31-7.54c11.18-12.43,24.9-17.58,41.72-15.51
		c7.18,0.88,13.88,2.58,20.3,5.64c7.39,3.52,13.56,8.76,19.27,14.47c1.86,1.86,3.55,2.62,6.02,2.47c9.85-0.6,19.42,0.6,28.81,3.83
		c2.94,1.01,5.3,2.73,7.69,4.38c6.74,4.65,14.58,5.75,22.2,7.76c6.32,1.66,12.53,3.64,17.77,8.02c3.15,2.63,5.63,5.62,7.15,9.29
		C271.68,62.33,271.27,65.22,267.94,66.94z"/>
	<path class="st3" d="M15.07,48.97c4.15,1,8.04-0.74,11.42-2.31c6.5-3.01,13.06-1.66,19.51-1.34c6.22,0.31,11.07-1.45,15.27-5.73
		c0.8-0.82,1.62-2.14,2.54-2.23c7.18-0.75,12.17-6.8,19.25-7.72c3.51-0.46,7-1.83,10.27,0.91c2.76,2.31,3.62-0.9,4.32-2.13
		c1.9-3.34,3.65-6.69,6.67-9.2c2.42-2,4.63-4.29,8.14-4.28c0.77,0,1.82-0.32,2.27-0.88c8.37-10.33,20.12-7.2,30.53-6.68
		c13.25,0.66,23.46,8.3,31.47,18.74c0.7,0.91,1.63,2.24,2.52,2.29c6.77,0.39,13.31,5.06,20.36,0.98c2.66-1.54,4.92,1.06,7.39,1.46
		c6.81,1.1,12.98,3.34,17.94,8.25c1.55,1.54,3.27,2.04,5.38,1.91c3.15-0.2,6.27-0.43,8.31,2.95c0.83,1.38,2.7,1.03,4.19,1.01
		c6.84-0.13,12.6,2.03,17.12,7.4c1.61,1.91,2.53,4.85,5.86,4.86c0.72,0,1.02,0.81,0.85,1.52c-0.23,1.01-1.18,1.37-1.93,1.13
		c-9.73-3.12-18.47,2.48-27.77,3.07c-4.4,0.21-7.79-2.58-11.5-4.18c-3.19-1.37-6.22-1.96-9.56-1.82c-1.66,0.07-3.35-0.16-4.99,0.04
		c-10.3,1.26-18.87-1.55-27.26-8.15c-5.63-4.43-12.57-7.56-20.69-8.58c-7.5-0.94-15.03-3.73-22.23-1.02
		c-5.96,2.24-12.34,0.56-18.12,3.59c-2.9,1.52-5.95,3.15-8.41,5.01c-3.71,2.81-7.41,3.29-11.62,3.18
		c-8.29-0.22-16.67-0.5-24.79,1.13c-5.71,1.14-11.27,3.44-16.61,5.84c-2.85,1.28-5.65,1.42-8.16,0.65
		c-10.6-3.26-21.31-1.54-31.96-1.04c-3.68,0.17-7.21,0.43-10.79-0.57c-2.68-0.75-2.86-2.24-1.11-3.86
		C10.9,51.52,13.07,50.34,15.07,48.97z"/>
</g>
</svg>
