<?xml version="1.0" encoding="utf-8"?>
<!-- Generator: Adobe Illustrator 25.4.1, SVG Export Plug-In . SVG Version: 6.00 Build 0)  -->
<svg version="1.1" id="Layer_1" xmlns="http://www.w3.org/2000/svg" xmlns:xlink="http://www.w3.org/1999/xlink" x="0px" y="0px"
	 viewBox="0 0 1053 254" style="enable-background:new 0 0 1053 254;" xml:space="preserve">
<style type="text/css">
	.st0{display:none;fill:#FEFEFE;}
	.st1{fill:#D6EDFB;}
	.st2{fill:#F9FCF9;}
	.st3{fill:#E0F2F8;}
	.st4{fill:#D9EFF6;}
	.st5{fill:#EAF8FB;}
	.st6{fill:#E8F7FB;}
	.st7{fill:#EBF9FB;}
	.st8{fill:#E8F6FA;}
	.st9{fill:#DBF0F7;}
	.st10{fill:#FEFEFE;}
	.st11{fill:#F9FDF9;}
	.st12{fill:#E6F6FB;}
	.st13{fill:#ECFCFD;}
</style>
<g>
	<path class="st0" d="M526,253.91c-173.8,0-347.61-0.01-521.41,0.09c-3.75,0-4.6-0.84-4.59-4.57C0.13,167.64,0.12,85.86,0,4.08
		C-0.01,0.67,0.67,0,4.09,0c348.27,0.1,696.54,0.1,1044.82,0c3.42,0,4.1,0.67,4.09,4.08c-0.12,81.95-0.12,163.9,0,245.85
		c0.01,3.41-0.67,4.08-4.09,4.08C874.61,253.89,700.3,253.91,526,253.91z"/>
	<path class="st1" d="M1040.91,219.06c-6.2,2.96-13.03,1.8-19.53,2.9c-12.85,2.18-25.89,0.32-38.8,1.2
		c-18.95,1.29-38,1.58-56.83,4.63c-4.38,0.71-8.99,0.49-13.45,0.18c-14.07-0.99-27.59,2.71-41.32,4.6
		c-21.73,2.99-42.91,9.11-64.78,11.31c-1.32,0.13-2.66,0.05-3.99,0.05c-21.13,0.01-42.27-0.02-63.4,0.05
		c-11.94,0.04-23.73,1.82-35.57,3.15c-16.74,1.87-33.34,4.62-50.29,4.96c-26.27,0.53-52.38-2.46-78.64-2.53
		c-14.01-0.04-28-4.19-42.16-4.06c-7.93,0.07-15.94-0.23-23.82,0.64c-8.97,0.99-17.78,0.66-26.75,0.04
		c-12.07-0.84-24.04-2.21-35.91-4.33c-8.98-1.6-18.04-2.19-27.05-2.59c-6.14-0.27-12.45,0.99-18.61,2.37
		c-25.92,5.78-52.04,10.27-78.75,8.19c-12.33-0.96-24.55-3.44-36.88-4.34c-9.67-0.71-19.31-2.57-29.19-0.76
		c-6.62,1.21-13.53,0.24-20.33,1.09c-6.88,0.86-13.9,0.58-20.84,0.85c-9.31,0.36-18.84,0.39-28.01-2.43
		c-1.23-0.38-2.64-0.25-3.96-0.25c-13.15-0.01-26.32-0.51-39.43,0.18c-8.62,0.46-17.24,1.17-25.84,0.71
		c-13.69-0.74-27.36-1.72-40.88-4.36c-13.44-2.62-27.02-4.31-40.67-5.73c-6.91-0.72-13.94,0.19-20.75-1.72
		c-2.24-0.63-4.49-1-6.44-2.42c-2.38-1.73-5.54-2.94-4.75-6.75c0.8-3.84,3.01-6.59,6.94-7.67c1.59-0.44,3.22-0.75,4.83-1.12
		c0.71-0.52,1.43-0.63,2.17-0.08c0.82,4.15-3.76,2.92-4.82,5.15c5.31,4.09,11.23,5.28,16.54,2.51c8.04-4.19,16.61-4.05,25.21-3.54
		c3.6,0.22,7.26,0.76,10.64,2.37c8.05,3.84,15.44,2.95,22-3.31c0.71-0.68,1.47-1.34,2.37-1.82c10.91-6.15,23.2-7.93,35.18-10.08
		c10.51-1.88,21.38-4.31,32.07-2.31c7.5,1.4,15.08,2.03,22.57,2.95c11.17,1.37,21.2,6.21,32.04,8.32c2.87,0.56,5.28,0.27,6.9-2.48
		c2.04-3.45,5.28-5.9,7.64-9.11c1.86-2.53,21.34-11.51,24.65-11.89c3.94,0.26,7.51-1.47,11.12-2.47c3.61-1,7.1-1.62,10.76-1.45
		c11.15,0.51,22.19-1.46,33.36-1.2c12.8,0.3,25.5,0.69,37.77,4.88c1.26,0.43,2.64,0.22,3.97,0.24c10.34,1.53,20.42,3.86,29.13,10.06
		c3.81,2.71,7.79,3.22,12.24,1.76c11.7-3.82,23.77-4.15,35.97-3.98c5.95,0.09,11.36,2.37,17.16,2.84c2.73,0.22,5.3,0.57,7.55-1.4
		c0.5-0.44,1.15-0.83,1.79-0.83c11.35-0.03,20.46-7.56,31.34-9.25c15.72-2.44,31.23-6.51,47.41-4.43
		c10.17,1.31,19.05-1.22,26.82-8.6c7.34-6.98,16.8-10.86,26.74-12.37c10.99-1.67,22.04-3.8,33.2-3.56
		c11.45,0.24,22.75,2.35,33.92,4.84c4.04,0.9,8.14,1.48,12.15,2.68c15.8,4.7,30.08,12.44,40.63,24.86
		c5.71,6.72,10.86,5.64,17.33,4.09c4.93-1.18,9.96-1.26,14.82-0.06c2.74,0.68,5.51,1.19,8.24,1.88c7.38,5.88,14.74,4.68,22.08-0.12
		c7.34-3.43,15.24-3.84,23.1-5.11c8.57-1.39,16.87-1.6,25.14,0.02c7.93,1.55,16.01,2.7,23.68,5.48c6.86,3.73,14.05,6.68,21.49,9.04
		c3.2,1.02,6.25,0.25,9.28-0.69c5.05-1.56,10.35-1.87,15.5-2.92c4.94-1.01,10.24-0.99,15.32-1.07c8.8-0.13,17.5-1.38,26.31-1.43
		c7.41-0.04,14.32,2.27,21.54,3.01c3.26,0.33,6.5,1.12,9.83,1.11c13.29-0.02,26.6,0.46,39.87-0.13c14.16-0.63,28.08,1.81,42.14,2.17
		c2.16,0.35,4.72-0.15,5.69,2.72C1045.81,215.95,1042.4,216.97,1040.91,219.06z"/>
	<path class="st2" d="M1039.92,211.1c-29.55-2.84-59.19-1.51-88.77-2.35c-4.94-0.14-10.49-1.59-15.7-2.97
		c-7.01-1.85-14.59-1.12-21.81-0.4c-8.23,0.81-16.49,1.09-24.72,1.63c-7.04,0.46-13.88,1.56-20.46,3.88
		c-8.12,2.86-14.82-1.47-21.57-4.24c-3.26-1.34-7.51-1.94-9.74-5.48c5.33-2.02,10.53-2.98,15.02,1.83c1.56,1.67,3.54,2.32,5.79,2.53
		c11.66,1.08,23.1-1.79,34.69-1.95c1.52-0.02,2.89-0.73,4.22-1.44c2.38-1.26,4.8-1.46,7.12,0c2.81,1.76,5.3,1.44,7.74-0.69
		c1.02-0.89,2.34-1.58,3.65-1.41c7.2,0.96,14.7-0.41,21.65,2.45c2.88,1.19,5.27,0.9,8-0.63c5.58-3.12,11.43-3.26,16.99,0.13
		c3.79,2.31,7.64,2.08,11.51,0.73c3.66-1.28,7.33-2.02,11.22-2.02c2.04,0,4.95,0.7,5.55-2.01c0.69-3.14,1.4-7-1.59-9.3
		c-3.79-2.9-6.55-6.89-11.12-9.06c-4.59-2.18-3.03-6.7-2.25-10.58c1.88-2.16,3.81-1.5,5.63,0.03c1.39,1.17,3.02,2.29,3.79,3.9
		c2.39,5.04,6.67,8.55,9.95,12.85c0.35,0.35,0.72,0.88,1.15,0.91c8.9,0.56,16.82,4.8,25.37,6.62c5.31,1.13,9.14,5.33,14.38,6.55
		c1.12,0.26,2.13,0.91,3.34,0.54c2.86,1.37,6.76,1.54,6.98,5.97c-1.74,0.77-2.44-1.34-4.01-1.41
		C1040.24,207.09,1042.46,210.02,1039.92,211.1z"/>
	<path class="st3" d="M17.11,215.1c-0.68,0-1.36-0.01-2.03-0.01c1.94-2.95,5.24-2.72,8.03-2.85c3.12-0.15,6.16-0.56,8.44-2.47
		c5.18-4.34,11.62-4.5,17.68-5.39c3.43-0.5,4.96-2.19,6.37-4.61c5.69-9.71,14.27-14.82,25.38-15.45c3.86-0.22,7.09-1.21,10.05-3.6
		c12.74-10.28,27.8-11.33,43.17-10.07c9.81,0.81,19.61,2.38,28.59,6.92c2.29,1.15,3.65-0.77,4.58-1.93
		c1.74-2.19,3.72-4.05,6.29-4.63c7.72-1.75,9.91-7.93,12.17-14.2c5.11-14.12,14.08-24.99,26.72-33.29
		c14.52-9.53,30.32-13.27,47.46-13.02c7.77,0.11,15.6-1.21,23.34-0.79c18.34,1,36.17,4.48,53.81,10.08
		c12.13,3.85,23.48,9.47,35.58,13.2c0.94,0.29,1.95,0.33,2.93,0.48c1.18,1.62,4-2.22,4.6,1.37c-0.79,3.86-3.55,4.25-6.48,3.12
		c-4.77-1.84-9.53-3.8-14.26-5.7c-8.88-3.56-17.75-7.53-27.24-9.17c-3.7-0.64-7.3-1.75-10.64-2.93
		c-12.24-4.34-24.95-5.19-37.65-6.24c-13.29-1.1-26.43-0.03-39.55,2.49c-6.42,1.23-12.6,2.89-18.64,5.28
		c-2.95,1.17-5.9,2.29-7.81,5.06c-0.57,0.83-1.43,1.44-2.42,1.67c-7.5,1.71-10.44,8.43-15.29,13.19
		c-7.29,7.15-8.36,16.86-12.66,25.19c-2,3.87-4.66,6.57-8.69,7.49c-3.29,0.75-5.78,2.22-7.88,4.76c-2.77,3.36-6.08,3.82-10.29,2.43
		c-7.24-2.39-14.48-5.46-22-6.21c-15.77-1.57-31.74-2.51-45,8.97c-1.89,1.63-3.92,2.41-6.36,2.32c-4.06-0.3-7.95,0.42-10.99,3.2
		c-2.93,2.69-7.24,1.66-10.1,4.24c-0.38,0.68-0.82,1.31-1.41,1.83c-3.51,2.19-5.63,5.57-7.61,9.01c-1.17,2.03-2.65,3.35-5.03,3.52
		c-7.41,0.52-14.11,3.42-20.85,6.18C26.71,216.49,21.99,217.64,17.11,215.1z"/>
	<path class="st4" d="M379.67,133.47c-0.78,0.61-1.57,1.2-2.33,1.82c-0.52,0.43-1.05,0.91-1.71,0.39c-0.91-0.71-0.15-1.48,0.05-2.22
		c3.43-4.58,8.02-7.64,13.15-10.03c11.65-5.43,23.87-6.08,36.34-4.13c3.36,0.53,5.42-1.17,6.17-3.74
		c4.05-13.87,14.81-20.36,27.28-24.77c3.59-1.27,5.52-2.79,4.93-6.61c-0.67-4.34,1.29-8.06,2.95-11.74
		c5.08-11.32,12.64-21.02,22.12-28.83c7.32-6.03,16.41-9.33,25.29-12.8c8.31-3.26,17.05-3.71,25.7-4.79
		c1.78-0.22,3.06-0.85,4.36-2.01c7.88-7.02,17.36-11.03,26.96-15.25c17.52-7.71,35.77-5.51,53.84-5.51c11.4,0,22.59,2.71,33.58,5.8
		c0.16,1.58-1.07,1.76-2.13,2.12c-4.06,0.57-7.82-0.53-11.51-2.03C638.32,6.4,631.49,8,624.93,7.14
		c-7.43-1.43-14.94-0.84-22.39-0.58c-8.61,0.3-17.2,1.53-25.45,4.11c-10.51,3.28-20.01,8.83-28.93,15.03
		c-4.68,3.25-9.77,4.85-14.74,5.15c-11.17,0.67-20.92,5.37-30.71,9.58c-14.79,6.37-24.18,18.81-31.59,32.51
		c-2.36,4.38-2.81,9.82-4.14,14.77c-1.06,3.97-2.96,6.64-7.34,7.77c-13.01,3.35-20.42,12.85-25.72,24.37
		c-1.98,4.3-3.47,4.8-8.19,3.92c-7.39-1.38-14.82-4.51-22.43-1.43c-6.47,2.62-13.75,3.7-18.71,9.43
		C383.44,133.09,381.71,134.08,379.67,133.47z"/>
	<path class="st5" d="M993.97,187.22c-2.79-3.75-6.96-6.21-9.06-10.73c-1.65-3.55-4.08-7.11-8.92-7.19c-7.53-2.7-14-8.01-22.26-8.93
		c-0.66-0.07-1.32-0.28-1.87-0.65c-11.24-7.45-23.39-5.73-35.55-3.43c-5.28,1-7.52,0.17-10.1-4.68c-1.8-3.38-2.85-6.93-3.72-10.7
		c-1.73-7.45-4.97-14.17-11.02-19.52c-4.3-3.8-8.92-7.42-12.26-12.23c-0.8-1.15-1.79-1.83-3.16-2.19
		c-8.78-2.36-17.22-5.73-25.84-8.56c-0.84-0.27-1.38-0.88-1.55-1.76c0.23-2.85,3.53-1.19,4.48-3c10.63,1.84,20.24,6.27,29.41,11.71
		c5.55,3.29,9.02,8.69,13.08,13.44c7.73,9.04,11.6,19.94,14.41,31.23c0.77,3.11,2.67,2.41,4.54,1.98
		c10.79-2.45,21.4-2.04,32.35-0.07c13.36,2.4,24.69,8.14,35.16,16.32c2.44,1.91,3.88,4.48,5.72,6.77c2.89,3.59,5.47,7.43,8.19,11.16
		C995.53,186.98,994.81,187.21,993.97,187.22z"/>
	<path class="st6" d="M720.28,60.81c5.58,6.72,9.03,14.61,11.79,22.71c0.96,2.81,2.04,3.19,4.37,3.19
		c5.88-0.01,11.86-0.75,17.45,1.95c0.57,0.28,1.53,0.05,1.88,0.44c5.41,5.94,11.52,5.51,18.93,3.88c6.92-1.52,14.43-0.92,21.15,3.15
		c1.85,1.12,4.85,0.38,7.32,0.49c0.18,2.43-2,1.65-3.14,2.29c2-0.17,3.7-0.91,5.46-1.98c2.05-1.25,4.33-3.51,7.07-1
		c-3.23,8.2-13.17,11.14-20.33,5.49c-3.72-2.94-6.84-4.07-11.68-2.82c-4.7,1.22-9.91,0.14-14.65,2.26
		c-1.44,0.64-2.97-0.13-4.16-1.12c-1.91-1.59-4.03-2.93-5.77-4.75c-2.67-2.81-6-4.05-9.87-3.97c-2.16,0.04-4.35-0.19-6.49,0.04
		c-7.85,0.82-11.63-2.55-14.22-11.45c-0.71-2.45-1.63-4.59-3.06-6.68c-2.37-3.45-4.5-7.09-2.64-11.56
		C719.9,61.18,720.09,61,720.28,60.81z"/>
	<path class="st7" d="M656.35,10.05c0.81-0.03,1.56-0.19,1.99-0.99c9.28,1.06,17.3,5.36,25.4,9.57
		c13.31,6.93,23.07,17.38,30.45,30.16c2.24,3.88,6.76,6.67,6.09,12.02c0,0,0,0,0,0c-1.04,1.11-2.46-0.01-3.73,0.79
		c-2.54,1.6-3.92-0.17-3.99-2.39c-0.1-3.13-1.8-5.23-3.59-7.41c-1.27-1.55-2.5-3.22-2.48-5.31c0.02-2.05-0.86-3.54-2.44-4.6
		c-4.41-2.95-7.17-8.16-13.01-9.21c-2.79-0.5-3.1-3.86-5.1-5.17c-7.77-5.1-14.85-11.55-24.84-12.39
		C658.39,14.88,655.15,14.31,656.35,10.05z"/>
	<path class="st8" d="M993.97,187.22c0.43-0.81,1.19-0.98,2.02-1.01c15.47,1.68,30.17,5.55,42.94,14.94
		c-0.2,1.47-0.68,1.65-2.3,1.29c-4.33-0.98-7.63-4.12-11.7-5.35c-9.22-2.77-17.92-7.45-27.8-7.87
		C995.65,189.15,994.59,188.56,993.97,187.22z"/>
	<path class="st9" d="M812.2,95.66c-2.5-0.22-4.71,0.86-6.33,2.4c-2.15,2.03-4.3,1.58-6.8,1.36c0.88-2.04,3.24-1.27,4.12-2.8
		c6.02-4.04,13.02-4.42,19.87-4.91c10.08-0.72,20.13,0.17,30.08,1.94c0.35,4.02-2.83,1-4,1.99c-1.93,0.88-3.81,0.13-5.7-0.18
		c-9.06-0.5-18.12-1.42-27.06,1.07C814.85,96.85,813.43,96.71,812.2,95.66z"/>
	<path class="st8" d="M1039.92,211.1c0.15-0.46,0.46-0.93,0.43-1.37c-0.15-2.03-1.55-4.84,0.31-5.87c2.55-1.41,3.21,2.52,5.26,3.26
		c3.67,5.78,2.31,9.01-5,11.94c0.06-1.01,0.3-2.07,1.25-2.48c2.12-0.92,1.47-2.82,1.32-4.18
		C1043.24,210.23,1041.17,211.45,1039.92,211.1z"/>
	<path class="st10" d="M844.14,94.65c1.75-0.1,3.45,0.04,4.99,1c0.98,3.69,4.34,1.12,6.29,2.38c6.8,4.41,14.77,5.47,22.36,7.58
		c0.79,0.22,1.81,0.13,2.02,1.11c1.36,6.27,7.24,8.98,11.35,12.31c6.42,5.21,9.51,11.99,12.22,18.9c1.68,4.26,1.66,9.25,4.16,13.5
		c2.31,3.93,4.92,4.5,9.36,3.54c11.64-2.53,23.54-4.14,34.24,2.88c2.98,1.96,5.97,1.31,8.86,2.19c4.77,1.45,7.85,6.57,13.61,5.72
		c2.11-0.31,1.77,2.21,2.39,3.54c0,0.99,0.06,1.99-0.01,2.98c-0.27,3.72-0.25,6.89,4.57,8.19c4.47,1.2,6.6,5.89,10.18,8.65
		c2.99,2.31,1.38,7.68,1.28,11.65c-0.03,1.25-2.73,1.45-4.43,1.38c-5.18-0.23-10.04,0.63-15.05,2.38
		c-3.93,1.37-8.69,2.01-12.33-2.31c-1.92-2.28-11.99-1.48-14.49,0.8c-2.83,2.59-5.68,2.98-8.91,0.88c-2.15-1.4-4.55-1.8-7.11-1.79
		c-3.8,0.02-7.57,0.2-11.36-0.81c-2.55-0.68-5.08-0.27-7.11,2.26c-2.06,2.58-4.97,2.42-7.27,0.17c-1.87-1.84-4.11-2.39-5.74-0.86
		c-2.69,2.53-5.7,2.31-8.82,2.25c-4.49-0.09-8.81,0.88-13.21,1.54c-6.57,0.99-13.42,0.5-20.12,0.17c-2.32-0.11-5.03-1.02-5.87-3.89
		c-0.58-1.98-2.11-1.79-3.59-1.79c-3.16-0.01-6.31,0-9.47,0c-6.97-1.43-13.91-3.12-20.93-4.22c-8.34-1.3-16.75-3.63-25.18-0.31
		c-0.31,0.12-0.63,0.38-0.92,0.34c-8.74-1.22-16.71,2.03-24.87,4.2c-7,2.35-14.01,2.43-21.01,0c-6.6,0.55-12.76-3.57-19.4-1.97
		c-5.42,1.31-10.8,2.39-16.44,2.01c-2.39-0.16-4.48-0.23-4.08-3.38c0.39-3.05-2.68-3.04-4.04-4.4c-6.98-7-14.96-12.45-24.07-16.78
		c-5.61-2.67-11.44-4.42-17.08-6.79c-3.28-1.37-7.06-1.59-10.4-2.09c-16.46-2.46-32.78-6.43-49.84-2.85
		c-8.42,1.77-17.39,1.87-25.55,4.67c-5.89,2.02-11.59,5.35-16.38,9.7c-3.06,2.77-6,5.02-10.22,6.69c-4.74,1.88-9.19,2.67-13.64,2.07
		c-11.32-1.55-22.49-0.5-33.55,1.29c-13.02,2.11-26.29,3.87-37.93,10.86c-2.12,1.27-4.15,0.79-6.23,0.94
		c-2.57,0.18-5.41-0.65-6.76,2.7c-0.62,1.55-1.91,0.66-3.01,0.47c-12.48-2.15-24.97-3.94-37.74-3.26
		c-7.8,0.42-14.91,3.54-22.49,4.81c-2.05,0.34-3.26,0.67-5.16-0.31c-3.48-1.8-7.93-2.95-10.48-5.13
		c-6.62-5.64-14.78-4.68-22.01-7.25c-7.88-2.32-15.87-3.9-24-5.27c-9.79-1.65-19.56-1.74-29.17-0.94
		c-9.42,0.79-18.89,0.38-28.19,1.54c-5.55,0.69-11.29,2.19-16.55,4.67c-3.69,0.13-6.56,1.66-9.46,4.08
		c-2.48,2.07-5.58,3.41-9.11,4.3c-5.56,1.4-8.73,7-11.55,11.55c-2.53,4.1-5.73,5.06-8.93,3.68c-4.2-1.81-8.81-1.66-12.71-3.35
		c-11.06-4.77-22.7-5.15-34.33-6.78c-6.88-0.96-13.73-1.91-20.47-1.31c-7.38,0.66-14.79,1.81-22.14,3.22
		c-7,1.34-13.8,3.65-20.87,4.39c-2.24,0.23-3.81,1.37-5.21,2.46c-1.92,1.5-3.84,1.71-6,1.66c-5.4,2.13-10.61,3.73-16.79,2.42
		c-3.7-0.78-7.74-0.32-11.44-1.97c-1.89-0.84-5.04-0.79-4.69-3.44c0.45-3.37-0.14-7.2,3.56-9.81c5.24-3.69,11.54-5.04,16.93-8.32
		c0.97-0.59,2.41-0.7,2.73-1.92c1.12-4.23,4.71-6.23,7.69-8.79c4.67,1.35,6.67-3.05,9.61-4.9c7.45-4.7,15.24-7.26,24.01-7.08
		c4.32,0.09,8.65,0.07,12.98,0.01c7.46-0.1,14.19,2.95,21.17,4.87c3.24,0.89,6.35,2.29,9.62,2.99c3.04,0.65,4.91-1.71,6.4-3.84
		c1.85-2.65,4.02-3.71,7.32-4.25c3.26-0.54,6.05-2.47,8.08-6.11c2.61-4.68,1.79-10.71,6.25-14.54c0.64-0.54,0.3-2.2,0.44-3.34
		c0.12-0.97-0.04-2.48,0.5-2.81c6.86-4.23,9.75-11.98,15.57-17.09c0.84-0.73,2.1-1.54,3.08-1.45c3.37,0.32,4.74-1.88,6.75-3.95
		c3.56-3.68,8.86-4.47,13.5-6.07c13.94-4.8,28.68-5.7,43.14-5.7c10.14,0,20.51,1.25,30.75,2.99c6.76,1.15,13.19,3.28,19.74,4.83
		c8.81,2.09,17.61,4.59,26.16,7.93c7.44,2.9,14.51,6.63,22.13,9.11c3.59,1.17,4.98-0.09,5.46-3.37c2.74-1.38,4.36-4.69,6.67-5.7
		c8.1-3.58,16.04-8.52,25.31-8.08c5.06,0.24,10.19,1.53,15.04,3.11c3.23,1.06,4.75,0.13,5.78-2.51
		c5.35-13.67,14.15-23.56,29.18-26.66c1.81-0.37,2.47-1.68,2.93-3.03c1.42-4.2,3.29-8.39,3.82-12.73
		c1.04-8.49,6.87-13.84,11.41-20.25c3.07-4.34,7.31-7.16,10.66-10.95c5.19-5.88,12.4-7.73,19.08-10.72
		c3.22-1.44,6.73-1.99,9.93-3.62c3.49-1.78,7.4-2.18,11.39-2.6c5.21-0.55,10.65-0.87,15.25-4.6c5.08-4.13,11.01-7.68,16.78-10.2
		c6.75-2.95,13.77-5.89,21.48-7.38c12.49-2.41,24.87-2.12,37.33-2.45c1.02-0.03,2,0.08,2.69,0.97c1.7,1.47,3.78,0.96,5.72,0.99
		c5.1,0.08,10.22-0.19,15.25,1.01c3.52,1.43,7.15,2.23,10.98,2c0.46,3.07,2.48,4.25,5.31,3.94c4.99-0.56,8.81,1.81,12.59,4.51
		c2.25,1.61,4.39,3.16,7.4,3.71c2.98,0.55,5.22,3.39,6.51,5.97c1.33,2.65,2.76,3.89,5.61,3.79c0.93-0.03,2.33-0.5,2.74,0.52
		c2.04,5.17,7.51,6.43,11.04,9.87c0.22,0.22,0.55,0.61,0.48,0.8c-2.1,5.66,2.75,8.22,5.25,11.83c0.57,0.82,0.99,1.72,0.53,2.78
		c-0.58,1.33-0.76,2.88,0.8,3.39c2.48,0.81,0.99-2.38,2.73-2.83c1.33,0.16,0.98,2.85,2.95,2.48c-0.49,5.19,0.73,9.76,4.97,13.13
		c1.14,0.91,1.08,2.02,1,3.11c-0.35,4.56,2.86,7.51,4.95,10.93c0.96,1.57,2.68,1.74,4.42,1.71c4.16-0.05,8.31-0.03,12.47-0.02
		c3.44,0.01,6.07,1.68,8.61,3.83c3.75,3.16,6.39,9.34,13.24,4.4c1.65-1.19,4.86-0.2,7.35-0.29c2.26-0.08,4.45,0.28,6.58-1.41
		c2.58-2.04,4.71,0.61,6.57,1.86c9.67,6.48,8.57,8.2,19.12,0.17c0.99-0.75,2.67-0.79,2.63-2.58c1.32-0.01,2.65-0.02,3.97-0.04
		C825.44,93.76,834.82,95.03,844.14,94.65z"/>
	<path class="st11" d="M87,185.26c-0.13,2.28-1.84,3.45-3.44,4.58c-1.25,0.88-2.6,1.58-2.53,3.35c0.12,3.02-1.41,4.2-4.28,3.98
		c-1.36-0.11-2.18,0.25-2.14,1.87c0.01,0.45-0.95,1.38-1.2,1.3c-5.57-1.81-8.12,4.07-12.65,4.85c-3.73,0.65-1.99,3.87-2.86,5.9
		c-1.73,4.05,0,4.4,3.57,5.22c7.88,1.82,15.57,3.71,23.58,0.85c1.18-0.42,2.63-0.07,3.96-0.08c-6.63,8.4-13.26,10.48-25.58,5.53
		c-6.59-2.65-13.36-2.89-20.32-2.12c-5.38,0.59-10.35,1.76-15.39,4.14c-4.17,1.97-9.46,1.84-13.78-1.79c-1.19-1-3.35-0.86-5.25-1.29
		c1.22-4.39,6.87-2.82,8.41-6.46c7.78,1.55,14.32-2.45,21.28-4.65c4.61-1.46,8.96-4.01,14.12-3.37c2.16,0.27,2.6-1.56,3.73-3.04
		c2.5-3.27,3.21-8.59,8.78-8.87c1.48,0.35,2.63,2.24,4.71,0.81c-0.77-2.27-3.63-1.16-4.66-2.78c0.16-0.46,0.34-1.33,0.49-1.32
		c6.12,0.22,10.36-4.21,15.6-6.1C82.93,185.13,85.04,185.4,87,185.26z"/>
	<path class="st12" d="M249.8,193.18c0.59-1.36,1.78-1.79,3.12-2.16c6.96-1.92,13.81-4.01,21.22-3.87
		c13.33,0.25,26.52-3.45,39.91-1.86c6.54,0.78,13.1,1.5,19.44,3.59c2.3,0.75,4.71,1.39,7.26,1.41c2.61,0.01,5.31,0.37,6.97,2.9
		c-4.32,1.19-8.13-1.32-11.95-2.27c-13.75-3.42-27.66-2.97-41.5-2.5c-9.27,0.31-18.56,0.47-27.82,0.94c-3.49,0.18-7,1.56-10.33,2.81
		C254.01,192.94,251.98,193.27,249.8,193.18z"/>
	<path class="st13" d="M744.23,201.17c7,0,14.01,0,21.01,0C759.71,207.42,749.56,207.42,744.23,201.17z"/>
	<path class="st10" d="M65.07,193.2c0.65,0,1.31-0.03,1.96,0c1.88,0.1,4.19-0.51,4.76,2.18c0.33,1.53-0.7,2.47-2.17,2.68
		c-2.3,0.33-4.33,0.08-4.6-2.88C65.03,194.51,65.05,193.85,65.07,193.2z"/>
	<path class="st7" d="M645.37,8.06c-5.73,0-11.46,0.02-17.2-0.01c-1.57-0.01-3.46,0.44-3.77-1.99
		C631.42,6.41,638.61,4.91,645.37,8.06z"/>
	<path class="st5" d="M844.14,94.65c-4.77,1.98-9.76,0.72-14.64,0.95c-4.44,0.21-8.89,0.04-13.34,0.03
		C825.39,92.35,834.75,93.22,844.14,94.65z"/>
</g>
</svg>
