<?xml version="1.0" encoding="utf-8"?>
<!-- Generator: Adobe Illustrator 25.4.1, SVG Export Plug-In . SVG Version: 6.00 Build 0)  -->
<svg version="1.1" id="Layer_1" xmlns="http://www.w3.org/2000/svg" xmlns:xlink="http://www.w3.org/1999/xlink" x="0px" y="0px"
	 viewBox="0 0 234 70" style="enable-background:new 0 0 234 70;" xml:space="preserve">
<style type="text/css">
	.st0{display:none;fill:#FEFEFE;}
	.st1{fill:#D6EEFB;}
	.st2{fill:#D8EFF5;}
	.st3{fill:#E4F6FA;}
	.st4{fill:#E5F6FA;}
	.st5{fill:#FEFEFE;}
	.st6{fill:#F7FBFC;}
</style>
<g>
	<path class="st0" d="M0.07,69.9C0.07,47.62,0.11,25.34,0,3.06C-0.01,0.56,0.57,0,3.06,0C79.01,0.08,154.95,0.08,230.9,0
		c2.5,0,3.08,0.56,3.06,3.06c-0.12,20.95-0.17,41.91,0.04,62.86c0.03,3.42-0.68,4.09-4.1,4.09C153.29,69.87,76.68,69.9,0.07,69.9z"
		/>
	<path class="st1" d="M223.9,60.91c-16.79,1.39-33.63,1.92-50.35,4.63c-10.09,1.64-20.56,0.65-30.77-0.87
		c-14.75-2.2-29.32-3.16-44.38-1.19c-17.66,2.31-35.63,3.19-53.23-2.27c-9.19-2.85-18.84-0.88-28.28-1.24
		c-4.06-0.16-7.93-0.75-11.22-3.26c-3.36-2.57-3.58-7.18-0.69-10.82c1.93-0.39,2.78,0.96,3.25,2.36c1.95,5.76,6.88,6.81,11.87,7.23
		c9.9,0.82,19.75,0.27,29.45-2.07c0.81-0.19,1.66-0.52,2.44-0.36c7.82,1.6,12.52-2.55,16.19-8.66c8.21-0.9,15.74-4.59,24.17-5.1
		c9.36-0.56,17.59,2.7,26.04,5.36c3.81,1.2,7.35,1.72,11.18,0.8c4.07-0.97,8.2-1.29,12.36-0.54c2.09,0.72,4.26,0.71,6.42,0.66
		c2.73-0.06,5.55,0.19,7.67,1.81c7.71,5.88,16.48,4.4,24.98,3.59c9.45-0.9,18.84-2.26,28.34-0.88c2.01,0.29,3.97-0.32,5.96-0.47
		c3.7-0.27,7.36-0.31,10.4,2.35C228.77,56.67,228.65,57.28,223.9,60.91z"/>
	<path class="st2" d="M68.02,45.02c-0.97,5.31-6.73,10.75-11.7,9.7c-5.66-1.19-10.96,0.62-15.93,1.68
		c-5.01,1.07-9.62,0.57-14.39,0.46c-4.16-0.1-8.18,0.19-12.49-1.43c-3.73-1.4-5.43-3.14-6.29-6.48c-0.35-1.36-0.88-2.48-2.23-3.06
		c4.96-4.35,11.37-5.59,17.29-7.79c1.56-0.58,2.98-1.05,4.31-2.11c10.11-8.06,20.25-16.1,34.2-15.99c1.47,0.01,2.54-0.72,3.43-1.75
		C74.48,6.3,87.72,2.43,102.98,4.06c-0.52,2.81-2.86,2.08-4.64,2.31c-6.66,0.85-13.47,1.18-19,5.74
		c-5.02,2.88-9.89,5.91-13.55,10.59c-1.32,1.69-3.57,1.61-5.57,1.62c-5.39,0.05-9.82,2.67-14.68,4.47
		C36.7,32.06,31.5,40.33,22.48,42.91c-3.65,1.05-7.94,1.14-10.88,4.18c0.23,1.2,1.07,1.26,1.9,1.2c11.59-0.92,23.16-1.65,34.67,1.04
		c4.8,1.12,9.15-0.6,13.17-3.29C63.35,44.7,65.41,42.81,68.02,45.02z"/>
	<path class="st3" d="M78.02,11.05c6.01-4.58,13.19-5.23,20.33-6c1.58-0.17,3.34,0.53,4.63-0.99c7.89-0.76,14.44,2.45,20.5,7
		c2.44,1.83,4.76,2.52,8.08,2.11c14.61-1.78,27.45,3.23,39.27,11.38c1.84,1.27,2.83,3.19,3.11,5.44c-0.23,0.15-0.46,0.31-0.69,0.47
		c-3.7,0.5-6.38-1.63-8.88-3.77c-7.05-6.02-15.19-8.58-24.37-8.29c-2.66,0.08-5.32-0.07-7.98,0.03c-3.8,0.14-7.16-0.79-10.24-3.11
		c-8.43-6.37-18.14-7.66-28.35-6.85c-2.43,0.19-4.41,1.36-6.5,2.36C84.01,12.24,81.05,13.28,78.02,11.05z"/>
	<path class="st4" d="M223.9,60.91c1.98-2.33,3.95-4.66,2-7.97c-1.12-1.24-0.25-2.51-0.03-3.75c0.24-1.35-0.26-2.23-1.5-2.76
		c-11.31-4.89-22.72-9.48-35.2-10.41c-0.65-0.05-1.32,0.13-1.98,0.2c-3.28,0.32-6.57,0.14-9.82-0.2c-3.86-0.4-4.61-1.9-3.43-6.02
		c0,0-0.01,0-0.01,0c2.48,1.49,5.11,2.13,8.06,2.02c14.08-0.53,27.51,2.19,40.29,8.17c2.9,1.36,5.44,3.29,7.61,5.48
		C234.01,49.8,232.25,59.51,223.9,60.91z"/>
	<path class="st5" d="M173.94,29.99c-0.32,3.79,0.93,5.45,5.16,4.72c2.84-0.49,5.88,0.14,8.83,0.27c2.83,2.77,5.96,4.11,10.09,3.13
		c2.05-0.49,4.24,0.55,6.22,1.49c2.12,1,3.58,2.57,3.36,5.03c-0.25,2.71-2.14,4.15-4.64,4.44c-4.29,0.49-8.65,0.85-12.83-0.69
		c-2.96-1.08-5.78-0.86-8.79-0.11c-8.67,2.15-17.31,3.03-25.69-1.4c-3.46-1.83-7.21-0.03-10.81-0.42c-0.97-0.1-2.01,0.2-2.88-0.48
		c-5.17-0.26-10.28,0.15-15.26,1.61c-1.86,0.55-3.68,0.54-5.32-0.39c-4.4-2.5-9.55-2.47-14.19-4.73c-6.52-3.17-14-1.53-21.1-1.03
		c-6.17,0.43-11.49,5.14-18.05,3.59c-2.08-0.24-3.73,0.38-5.44,1.75c-5.43,4.34-11.42,4.72-18.27,3.3
		C34.3,48,24.03,47.96,13.93,50.16c-2.65,0.58-4.29-0.95-5.07-2.66c-0.7-1.53,1.12-2.1,2.71-2.6c5.69-1.82,11.4-3.69,16.84-6.11
		c2.54-1.13,4.68-3.39,6.68-5.46c2.44-2.51,4.73-4.19,8.61-4.8c2.22-0.35,4.55-3.9,7.81-4.54c0.62-0.12,1.25-0.9,1.77-0.8
		c8.12,1.54,13.86-2.3,18.45-8.3c1.7-2.23,5.43-0.59,6.29-3.84c3.96,0.5,7.51-0.53,10.77-2.76c0.66-0.45,1.39-1.08,2.11-1.13
		c11.76-0.79,23.27-0.47,32.81,7.93c1.72,1.51,3.72,2.01,5.99,1.96c4.32-0.08,8.65,0,12.98-0.03c8.44-0.06,15.8,2.72,22.1,8.31
		C167.43,27.68,170.38,29.43,173.94,29.99z"/>
	<path class="st6" d="M141.95,45.97c3.13-0.09,6.24,0.07,9.37-0.79c2.34-0.64,4.59-0.03,7,1.37c3.99,2.31,8.75,2.26,13.33,2
		c1.47-0.08,3.09-0.05,4.37-0.64c8.24-3.81,16.41,0.52,24.6,0.1c2.58-0.13,5.38-0.01,6-3.09c0.65-3.27-2.23-3.98-4.59-4.77
		c-2.83-0.94-5.56-1.98-8.45,0.28c-1.38,1.08-3.34,0.98-3.6-1.52c-0.17-1.63-1.47-2.56-2.05-3.91c5.28-1.7,9.66,2.69,14.81,2.12
		c4.64-0.51,8.69,1.26,11.9,4.39c2.27,2.21,5.35,1.99,7.74,2.53c6.53,1.47,6.02,4.51,3.52,8.91c-4.47-2.23-9-2.34-13.92-1.35
		c-2.94,0.59-6.2-0.44-9.32-0.63c-12.14-0.72-24.04,2.99-36.2,1.99c-1.32-0.11-3.15,0.49-3.91-0.18
		C156.6,47.56,149.19,47.08,141.95,45.97z"/>
</g>
</svg>
